<?xml version="1.0" standalone="no"?><!DOCTYPE svg PUBLIC "-//W3C//DTD SVG 1.1//EN" "http://www.w3.org/Graphics/SVG/1.1/DTD/svg11.dtd"><svg class="icon" width="200px" height="200.00px" viewBox="0 0 1024 1024" version="1.1" xmlns="http://www.w3.org/2000/svg"><path fill="#333333" d="M420.397 310.473l307.786 183.206c21.984 14.657 14.657 21.984 0 29.313l-315.114 190.535c-21.984 14.657-29.313 7.328-29.313-14.657v-381.068c0-21.984 14.657-21.984 36.641-7.328zM449.71 266.503l307.786 183.206c51.298 36.641 51.298 87.939 0 117.252v0l-315.114 190.535c-21.984 14.657-51.298 21.984-80.611 7.328-21.984-14.657-29.313-36.641-29.313-65.954v-381.068c0-21.984 7.328-43.97 29.313-58.626 29.313-14.657 58.626-7.328 87.939 7.328zM508.336 32c-263.817 0-476.336 212.519-476.336 476.336s212.519 483.664 476.336 483.664c263.817 0 483.664-219.848 483.664-483.664 0-263.817-219.848-476.336-483.664-476.336v0z" /></svg>